<?xml version="1.0" encoding="UTF-8"?>
<svg width="571px" height="881px" viewBox="0 0 571 881" version="1.1" xmlns="http://www.w3.org/2000/svg" xmlns:xlink="http://www.w3.org/1999/xlink">
    <!-- Generator: Sketch 64 (93537) - https://sketch.com -->
    <title>Combined Shape</title>
    <desc>Created with Sketch.</desc>
    <g id="Symbols" stroke="none" stroke-width="1" fill-rule="evenodd">
        <g id="rocket" transform="translate(-226.000000, -13.000000)">
            <g transform="translate(0.000000, -22.000000)" id="Combined-Shape">
                <path d="M361.090171,685.981398 C364.516186,687.861501 366.959369,691.133984 367.788263,694.953055 L379.330521,748.133138 C387.668512,787.806142 387.569274,815.297059 379.032808,830.605889 C370.496342,845.914719 346.446521,861.731402 306.883343,878.055938 L239.253688,914.326667 C234.873331,916.675914 229.417908,915.029374 227.068661,910.649016 C225.629262,907.965142 225.644806,904.735392 227.109971,902.065497 L342.76038,691.321695 C346.34733,684.785381 354.553857,682.394448 361.090171,685.981398 Z M661.930752,685.981398 C668.467066,682.394448 676.673593,684.785381 680.260542,691.321695 L680.260542,691.321695 L795.910951,902.065497 C797.376117,904.735392 797.39166,907.965142 795.952261,910.649016 C793.603014,915.029374 788.147592,916.675914 783.767234,914.326667 L783.767234,914.326667 L716.137579,878.055938 C676.574402,861.731402 652.52458,845.914719 643.988114,830.605889 C635.451648,815.297059 635.352411,787.806142 643.690401,748.133138 L643.690401,748.133138 L655.232659,694.953055 C656.061554,691.133984 658.504736,687.861501 661.930752,685.981398 Z M572.957876,176.669434 C583.98446,176.669432 593.514828,184.367289 595.83431,195.147157 C625.618411,333.569679 640.510461,434.476822 640.510461,497.868586 C640.510461,561.208382 625.642818,660.353733 595.907532,795.304641 C593.544156,806.030617 584.038955,813.669434 573.05569,813.669434 L442.730113,813.669434 C431.807712,813.669433 422.338123,806.113219 419.913802,795.463266 C389.644908,662.493136 374.510461,563.29491 374.510461,497.868586 C374.510461,432.388117 389.669969,331.429684 419.988984,194.99329 C422.368169,184.286897 431.864208,176.669434 442.831768,176.669434 L572.957876,176.669434 Z M507.510461,356.612937 C463.93613,356.612937 428.612156,391.859446 428.612156,435.338219 C428.612156,478.816992 463.93613,514.063502 507.510461,514.063502 C551.084792,514.063502 586.408766,478.816992 586.408766,435.338219 C586.408766,391.859446 551.084792,356.612937 507.510461,356.612937 Z M524.204529,39.7991279 C532.214898,43.6893252 538.698087,50.141292 542.626909,58.1327878 L579.206213,132.537625 C581.886507,137.989529 579.639674,144.581978 574.18777,147.262272 C572.677676,148.004672 571.017387,148.390727 569.334668,148.390727 L444.570671,148.390727 C438.495538,148.390727 433.570671,143.465859 433.570671,137.390727 C433.570671,135.725939 433.948544,134.082867 434.675812,132.585336 L470.749078,58.3062836 C480.399783,38.4343586 504.332604,30.1484227 524.204529,39.7991279 Z"></path>
            </g>
        </g>
    </g>
</svg>