<?xml version="1.0" encoding="UTF-8"?>
<svg width="1024px" height="1024px" viewBox="0 0 1024 1024" version="1.1" xmlns="http://www.w3.org/2000/svg" xmlns:xlink="http://www.w3.org/1999/xlink">
    <!-- Generator: Sketch 64 (93537) - https://sketch.com -->
    <title>logo</title>
    <desc>Created with Sketch.</desc>
    <defs>
        <radialGradient cx="50%" cy="100%" fx="50%" fy="100%" r="100%" id="radialGradient-1">
            <stop stop-color="#1FC7FA" offset="0%"></stop>
            <stop stop-color="#1E6FF0" offset="100%"></stop>
        </radialGradient>
        <path d="M429.090171,741.981398 C432.516186,743.861501 434.959369,747.133984 435.788263,750.953055 L447.330521,804.133138 C455.668512,843.806142 455.569274,871.297059 447.032808,886.605889 C438.496342,901.914719 414.446521,917.731402 374.883343,934.055938 L307.253688,970.326667 C302.873331,972.675914 297.417908,971.029374 295.068661,966.649016 C293.629262,963.965142 293.644806,960.735392 295.109971,958.065497 L410.76038,747.321695 C414.34733,740.785381 422.553857,738.394448 429.090171,741.981398 Z M729.930752,741.981398 C736.467066,738.394448 744.673593,740.785381 748.260542,747.321695 L748.260542,747.321695 L863.910951,958.065497 C865.376117,960.735392 865.39166,963.965142 863.952261,966.649016 C861.603014,971.029374 856.147592,972.675914 851.767234,970.326667 L851.767234,970.326667 L784.137579,934.055938 C744.574402,917.731402 720.52458,901.914719 711.988114,886.605889 C703.451648,871.297059 703.352411,843.806142 711.690401,804.133138 L711.690401,804.133138 L723.232659,750.953055 C724.061554,747.133984 726.504736,743.861501 729.930752,741.981398 Z M640.957876,232.669434 C651.98446,232.669432 661.514828,240.367289 663.83431,251.147157 C693.618411,389.569679 708.510461,490.476822 708.510461,553.868586 C708.510461,617.208382 693.642818,716.353733 663.907532,851.304641 C661.544156,862.030617 652.038955,869.669434 641.05569,869.669434 L510.730113,869.669434 C499.807712,869.669433 490.338123,862.113219 487.913802,851.463266 C457.644908,718.493136 442.510461,619.29491 442.510461,553.868586 C442.510461,488.388117 457.669969,387.429684 487.988984,250.99329 C490.368169,240.286897 499.864208,232.669434 510.831768,232.669434 L640.957876,232.669434 Z M575.510461,412.612937 C531.93613,412.612937 496.612156,447.859446 496.612156,491.338219 C496.612156,534.816992 531.93613,570.063502 575.510461,570.063502 C619.084792,570.063502 654.408766,534.816992 654.408766,491.338219 C654.408766,447.859446 619.084792,412.612937 575.510461,412.612937 Z M592.204529,95.7991279 C600.214898,99.6893252 606.698087,106.141292 610.626909,114.132788 L647.206213,188.537625 C649.886507,193.989529 647.639674,200.581978 642.18777,203.262272 C640.677676,204.004672 639.017387,204.390727 637.334668,204.390727 L512.570671,204.390727 C506.495538,204.390727 501.570671,199.465859 501.570671,193.390727 C501.570671,191.725939 501.948544,190.082867 502.675812,188.585336 L538.749078,114.306284 C548.399783,94.4343586 572.332604,86.1484227 592.204529,95.7991279 Z" id="path-2"></path>
        <filter x="-8.1%" y="-0.9%" width="116.1%" height="106.1%" filterUnits="objectBoundingBox" id="filter-3">
            <feOffset dx="0" dy="2" in="SourceAlpha" result="shadowOffsetOuter1"></feOffset>
            <feGaussianBlur stdDeviation="15" in="shadowOffsetOuter1" result="shadowBlurOuter1"></feGaussianBlur>
            <feColorMatrix values="0 0 0 0 0   0 0 0 0 0   0 0 0 0 0  0 0 0 0.241968969 0" type="matrix" in="shadowBlurOuter1" result="shadowMatrixOuter1"></feColorMatrix>
            <feOffset dx="0" dy="2" in="SourceAlpha" result="shadowOffsetOuter2"></feOffset>
            <feGaussianBlur stdDeviation="2" in="shadowOffsetOuter2" result="shadowBlurOuter2"></feGaussianBlur>
            <feColorMatrix values="0 0 0 0 0   0 0 0 0 0   0 0 0 0 0  0 0 0 0.5 0" type="matrix" in="shadowBlurOuter2" result="shadowMatrixOuter2"></feColorMatrix>
            <feMerge>
                <feMergeNode in="shadowMatrixOuter1"></feMergeNode>
                <feMergeNode in="shadowMatrixOuter2"></feMergeNode>
            </feMerge>
        </filter>
    </defs>
    <g id="logo" stroke="none" stroke-width="1" fill="none" fill-rule="evenodd">
        <g id="rocket">
            <g transform="translate(0.000000, -57.000000)">
                <rect id="Rectangle" fill="url(#radialGradient-1)" x="0" y="57" width="1024" height="1024" rx="128"></rect>
                <g id="Combined-Shape" transform="translate(579.510461, 513.698543) rotate(50.000000) translate(-579.510461, -513.698543) ">
                    <use fill="black" fill-opacity="1" filter="url(#filter-3)" xlink:href="#path-2"></use>
                    <use fill="#FFFFFF" fill-rule="evenodd" xlink:href="#path-2"></use>
                </g>
            </g>
        </g>
    </g>
</svg>